<mxfile host="app.diagrams.net" modified="2023-01-13T07:20:08.582Z" agent="5.0 (Windows NT 10.0; Win64; x64) AppleWebKit/537.36 (KHTML, like Gecko) Chrome/109.0.0.0 Safari/537.36" etag="NHQPH3aUyy0YvXw4GVxZ" version="20.8.5" type="github">
  <diagram name="Page-1" id="74e2e168-ea6b-b213-b513-2b3c1d86103e">
    <mxGraphModel dx="1434" dy="764" grid="1" gridSize="10" guides="1" tooltips="1" connect="1" arrows="1" fold="1" page="1" pageScale="1" pageWidth="1100" pageHeight="850" background="none" math="0" shadow="0">
      <root>
        <mxCell id="0" />
        <mxCell id="1" parent="0" />
        <mxCell id="DVyqi5FKeD5EoQhoKruz-1" value="生效前 (新契約)" style="swimlane;whiteSpace=wrap;html=1;" parent="1" vertex="1">
          <mxGeometry x="40" y="181" width="250" height="520" as="geometry" />
        </mxCell>
        <mxCell id="DVyqi5FKeD5EoQhoKruz-2" value="有效 (自要保書生效日後一日起)" style="swimlane;whiteSpace=wrap;html=1;" parent="1" vertex="1">
          <mxGeometry x="290" y="181" width="740" height="520" as="geometry" />
        </mxCell>
        <mxCell id="DVyqi5FKeD5EoQhoKruz-3" value="保單生命週期" style="swimlane;whiteSpace=wrap;html=1;" parent="1" vertex="1">
          <mxGeometry x="30" y="151" width="1270" height="570" as="geometry" />
        </mxCell>
        <mxCell id="DVyqi5FKeD5EoQhoKruz-4" value="無效" style="swimlane;whiteSpace=wrap;html=1;fontStyle=0" parent="DVyqi5FKeD5EoQhoKruz-3" vertex="1">
          <mxGeometry x="1000" y="30" width="260" height="520" as="geometry" />
        </mxCell>
        <mxCell id="YKBG0jgpZs3wiLhJpTWU-11" value="32 拒保" style="rounded=0;whiteSpace=wrap;html=1;" vertex="1" parent="DVyqi5FKeD5EoQhoKruz-4">
          <mxGeometry x="160" y="41" width="80" height="40" as="geometry" />
        </mxCell>
        <mxCell id="YKBG0jgpZs3wiLhJpTWU-12" value="33 延期" style="rounded=0;whiteSpace=wrap;html=1;" vertex="1" parent="DVyqi5FKeD5EoQhoKruz-4">
          <mxGeometry x="160" y="90" width="80" height="40" as="geometry" />
        </mxCell>
        <mxCell id="YKBG0jgpZs3wiLhJpTWU-16" style="edgeStyle=orthogonalEdgeStyle;rounded=0;orthogonalLoop=1;jettySize=auto;html=1;" edge="1" parent="DVyqi5FKeD5EoQhoKruz-4" source="YKBG0jgpZs3wiLhJpTWU-14" target="YKBG0jgpZs3wiLhJpTWU-11">
          <mxGeometry relative="1" as="geometry">
            <Array as="points">
              <mxPoint x="80" y="50" />
            </Array>
          </mxGeometry>
        </mxCell>
        <mxCell id="YKBG0jgpZs3wiLhJpTWU-17" style="edgeStyle=orthogonalEdgeStyle;rounded=0;orthogonalLoop=1;jettySize=auto;html=1;" edge="1" parent="DVyqi5FKeD5EoQhoKruz-4" source="YKBG0jgpZs3wiLhJpTWU-14" target="YKBG0jgpZs3wiLhJpTWU-12">
          <mxGeometry relative="1" as="geometry">
            <Array as="points">
              <mxPoint x="80" y="120" />
            </Array>
          </mxGeometry>
        </mxCell>
        <mxCell id="YKBG0jgpZs3wiLhJpTWU-14" value="保險公司仍需考慮" style="rhombus;whiteSpace=wrap;html=1;" vertex="1" parent="DVyqi5FKeD5EoQhoKruz-4">
          <mxGeometry x="10" y="60" width="140" height="50" as="geometry" />
        </mxCell>
        <mxCell id="YKBG0jgpZs3wiLhJpTWU-18" value="N" style="text;html=1;strokeColor=none;fillColor=none;align=center;verticalAlign=middle;whiteSpace=wrap;rounded=0;" vertex="1" parent="DVyqi5FKeD5EoQhoKruz-4">
          <mxGeometry x="50" y="35" width="30" height="30" as="geometry" />
        </mxCell>
        <mxCell id="YKBG0jgpZs3wiLhJpTWU-19" value="Y" style="text;html=1;strokeColor=none;fillColor=none;align=center;verticalAlign=middle;whiteSpace=wrap;rounded=0;" vertex="1" parent="DVyqi5FKeD5EoQhoKruz-4">
          <mxGeometry x="50" y="100" width="30" height="30" as="geometry" />
        </mxCell>
        <mxCell id="YKBG0jgpZs3wiLhJpTWU-21" value="通常只是較委婉地拒絕" style="text;html=1;strokeColor=none;fillColor=none;align=left;verticalAlign=middle;whiteSpace=wrap;rounded=0;" vertex="1" parent="DVyqi5FKeD5EoQhoKruz-4">
          <mxGeometry x="130" y="125" width="130" height="30" as="geometry" />
        </mxCell>
        <mxCell id="DVyqi5FKeD5EoQhoKruz-7" value="" style="edgeStyle=orthogonalEdgeStyle;rounded=0;orthogonalLoop=1;jettySize=auto;html=1;" parent="DVyqi5FKeD5EoQhoKruz-3" source="DVyqi5FKeD5EoQhoKruz-5" target="DVyqi5FKeD5EoQhoKruz-6" edge="1">
          <mxGeometry relative="1" as="geometry" />
        </mxCell>
        <mxCell id="DVyqi5FKeD5EoQhoKruz-5" value="06 險種登錄" style="rounded=0;whiteSpace=wrap;html=1;" parent="DVyqi5FKeD5EoQhoKruz-3" vertex="1">
          <mxGeometry x="20" y="111" width="80" height="40" as="geometry" />
        </mxCell>
        <mxCell id="DVyqi5FKeD5EoQhoKruz-12" value="" style="edgeStyle=orthogonalEdgeStyle;rounded=0;orthogonalLoop=1;jettySize=auto;html=1;" parent="DVyqi5FKeD5EoQhoKruz-3" source="DVyqi5FKeD5EoQhoKruz-6" target="DVyqi5FKeD5EoQhoKruz-11" edge="1">
          <mxGeometry relative="1" as="geometry" />
        </mxCell>
        <mxCell id="YKBG0jgpZs3wiLhJpTWU-36" style="edgeStyle=orthogonalEdgeStyle;rounded=0;orthogonalLoop=1;jettySize=auto;html=1;" edge="1" parent="DVyqi5FKeD5EoQhoKruz-3" source="DVyqi5FKeD5EoQhoKruz-6" target="YKBG0jgpZs3wiLhJpTWU-14">
          <mxGeometry relative="1" as="geometry">
            <Array as="points">
              <mxPoint x="200" y="60" />
              <mxPoint x="990" y="60" />
              <mxPoint x="990" y="115" />
            </Array>
          </mxGeometry>
        </mxCell>
        <mxCell id="DVyqi5FKeD5EoQhoKruz-6" value="核保&lt;br&gt;(照會)" style="rhombus;whiteSpace=wrap;html=1;" parent="DVyqi5FKeD5EoQhoKruz-3" vertex="1">
          <mxGeometry x="160" y="106" width="80" height="50" as="geometry" />
        </mxCell>
        <mxCell id="YKBG0jgpZs3wiLhJpTWU-3" style="edgeStyle=orthogonalEdgeStyle;rounded=0;orthogonalLoop=1;jettySize=auto;html=1;entryX=0;entryY=0.5;entryDx=0;entryDy=0;" edge="1" parent="DVyqi5FKeD5EoQhoKruz-3" source="DVyqi5FKeD5EoQhoKruz-9" target="DVyqi5FKeD5EoQhoKruz-30">
          <mxGeometry relative="1" as="geometry">
            <Array as="points">
              <mxPoint x="250" y="365" />
              <mxPoint x="250" y="285" />
            </Array>
          </mxGeometry>
        </mxCell>
        <mxCell id="DVyqi5FKeD5EoQhoKruz-9" value="10 待批次發單" style="rounded=0;whiteSpace=wrap;html=1;" parent="DVyqi5FKeD5EoQhoKruz-3" vertex="1">
          <mxGeometry x="160" y="345" width="80" height="40" as="geometry" />
        </mxCell>
        <mxCell id="DVyqi5FKeD5EoQhoKruz-22" style="edgeStyle=orthogonalEdgeStyle;rounded=0;orthogonalLoop=1;jettySize=auto;html=1;startArrow=none;" parent="DVyqi5FKeD5EoQhoKruz-3" target="DVyqi5FKeD5EoQhoKruz-14" edge="1">
          <mxGeometry relative="1" as="geometry">
            <mxPoint x="110" y="260" as="sourcePoint" />
            <Array as="points">
              <mxPoint x="110" y="260" />
            </Array>
          </mxGeometry>
        </mxCell>
        <mxCell id="DVyqi5FKeD5EoQhoKruz-23" style="edgeStyle=orthogonalEdgeStyle;rounded=0;orthogonalLoop=1;jettySize=auto;html=1;" parent="DVyqi5FKeD5EoQhoKruz-3" source="DVyqi5FKeD5EoQhoKruz-11" target="DVyqi5FKeD5EoQhoKruz-9" edge="1">
          <mxGeometry relative="1" as="geometry">
            <Array as="points">
              <mxPoint x="200" y="340" />
              <mxPoint x="200" y="340" />
            </Array>
          </mxGeometry>
        </mxCell>
        <mxCell id="DVyqi5FKeD5EoQhoKruz-11" value="金額足夠" style="rhombus;whiteSpace=wrap;html=1;" parent="DVyqi5FKeD5EoQhoKruz-3" vertex="1">
          <mxGeometry x="160" y="220" width="80" height="50" as="geometry" />
        </mxCell>
        <mxCell id="DVyqi5FKeD5EoQhoKruz-13" value="Y" style="text;html=1;strokeColor=none;fillColor=none;align=center;verticalAlign=middle;whiteSpace=wrap;rounded=0;" parent="DVyqi5FKeD5EoQhoKruz-3" vertex="1">
          <mxGeometry x="172" y="149" width="30" height="30" as="geometry" />
        </mxCell>
        <mxCell id="DVyqi5FKeD5EoQhoKruz-14" value="09 已核保未繳費" style="rounded=0;whiteSpace=wrap;html=1;" parent="DVyqi5FKeD5EoQhoKruz-3" vertex="1">
          <mxGeometry x="40" y="345" width="100" height="40" as="geometry" />
        </mxCell>
        <mxCell id="DVyqi5FKeD5EoQhoKruz-24" value="Y" style="text;html=1;strokeColor=none;fillColor=none;align=center;verticalAlign=middle;whiteSpace=wrap;rounded=0;" parent="DVyqi5FKeD5EoQhoKruz-3" vertex="1">
          <mxGeometry x="171" y="260" width="30" height="30" as="geometry" />
        </mxCell>
        <mxCell id="DVyqi5FKeD5EoQhoKruz-26" value="" style="edgeStyle=orthogonalEdgeStyle;rounded=0;orthogonalLoop=1;jettySize=auto;html=1;endArrow=none;" parent="DVyqi5FKeD5EoQhoKruz-3" source="DVyqi5FKeD5EoQhoKruz-11" edge="1">
          <mxGeometry relative="1" as="geometry">
            <mxPoint x="150" y="335" as="sourcePoint" />
            <mxPoint x="110" y="260" as="targetPoint" />
            <Array as="points">
              <mxPoint x="110" y="245" />
            </Array>
          </mxGeometry>
        </mxCell>
        <mxCell id="DVyqi5FKeD5EoQhoKruz-27" value="N" style="text;html=1;strokeColor=none;fillColor=none;align=center;verticalAlign=middle;whiteSpace=wrap;rounded=0;" parent="DVyqi5FKeD5EoQhoKruz-3" vertex="1">
          <mxGeometry x="140" y="220" width="30" height="30" as="geometry" />
        </mxCell>
        <mxCell id="YKBG0jgpZs3wiLhJpTWU-4" style="edgeStyle=orthogonalEdgeStyle;rounded=0;orthogonalLoop=1;jettySize=auto;html=1;" edge="1" parent="DVyqi5FKeD5EoQhoKruz-3" source="DVyqi5FKeD5EoQhoKruz-30" target="YKBG0jgpZs3wiLhJpTWU-2">
          <mxGeometry relative="1" as="geometry">
            <Array as="points">
              <mxPoint x="333" y="200" />
            </Array>
          </mxGeometry>
        </mxCell>
        <mxCell id="YKBG0jgpZs3wiLhJpTWU-5" style="edgeStyle=orthogonalEdgeStyle;rounded=0;orthogonalLoop=1;jettySize=auto;html=1;" edge="1" parent="DVyqi5FKeD5EoQhoKruz-3" source="DVyqi5FKeD5EoQhoKruz-30" target="YKBG0jgpZs3wiLhJpTWU-1">
          <mxGeometry relative="1" as="geometry">
            <Array as="points">
              <mxPoint x="333" y="365" />
            </Array>
          </mxGeometry>
        </mxCell>
        <mxCell id="DVyqi5FKeD5EoQhoKruz-30" value="需繼續繳費" style="rhombus;whiteSpace=wrap;html=1;" parent="DVyqi5FKeD5EoQhoKruz-3" vertex="1">
          <mxGeometry x="278" y="260" width="110" height="50" as="geometry" />
        </mxCell>
        <mxCell id="YKBG0jgpZs3wiLhJpTWU-1" value="44 繳費期滿" style="rounded=0;whiteSpace=wrap;html=1;" vertex="1" parent="DVyqi5FKeD5EoQhoKruz-3">
          <mxGeometry x="350" y="345" width="80" height="40" as="geometry" />
        </mxCell>
        <mxCell id="YKBG0jgpZs3wiLhJpTWU-26" value="" style="edgeStyle=orthogonalEdgeStyle;rounded=0;orthogonalLoop=1;jettySize=auto;html=1;" edge="1" parent="DVyqi5FKeD5EoQhoKruz-3" source="YKBG0jgpZs3wiLhJpTWU-2" target="YKBG0jgpZs3wiLhJpTWU-23">
          <mxGeometry relative="1" as="geometry" />
        </mxCell>
        <mxCell id="YKBG0jgpZs3wiLhJpTWU-2" value="42 繳費中" style="rounded=0;whiteSpace=wrap;html=1;" vertex="1" parent="DVyqi5FKeD5EoQhoKruz-3">
          <mxGeometry x="350" y="179" width="80" height="40" as="geometry" />
        </mxCell>
        <mxCell id="YKBG0jgpZs3wiLhJpTWU-6" value="Y" style="text;html=1;strokeColor=none;fillColor=none;align=center;verticalAlign=middle;whiteSpace=wrap;rounded=0;" vertex="1" parent="DVyqi5FKeD5EoQhoKruz-3">
          <mxGeometry x="310" y="240" width="30" height="30" as="geometry" />
        </mxCell>
        <mxCell id="YKBG0jgpZs3wiLhJpTWU-7" value="N" style="text;html=1;strokeColor=none;fillColor=none;align=center;verticalAlign=middle;whiteSpace=wrap;rounded=0;" vertex="1" parent="DVyqi5FKeD5EoQhoKruz-3">
          <mxGeometry x="310" y="305" width="30" height="30" as="geometry" />
        </mxCell>
        <mxCell id="YKBG0jgpZs3wiLhJpTWU-8" value="例:&lt;br&gt;躉繳、僅需收費一次" style="text;html=1;strokeColor=none;fillColor=none;align=left;verticalAlign=middle;whiteSpace=wrap;rounded=0;" vertex="1" parent="DVyqi5FKeD5EoQhoKruz-3">
          <mxGeometry x="320" y="379" width="110" height="30" as="geometry" />
        </mxCell>
        <mxCell id="YKBG0jgpZs3wiLhJpTWU-22" value="重&lt;br&gt;新&lt;br&gt;協&lt;br&gt;商" style="text;html=1;strokeColor=none;fillColor=none;align=left;verticalAlign=middle;whiteSpace=wrap;rounded=0;" vertex="1" parent="DVyqi5FKeD5EoQhoKruz-3">
          <mxGeometry x="52" y="255" width="20" height="60" as="geometry" />
        </mxCell>
        <mxCell id="YKBG0jgpZs3wiLhJpTWU-30" value="" style="edgeStyle=orthogonalEdgeStyle;rounded=0;orthogonalLoop=1;jettySize=auto;html=1;" edge="1" parent="DVyqi5FKeD5EoQhoKruz-3" source="YKBG0jgpZs3wiLhJpTWU-23" target="YKBG0jgpZs3wiLhJpTWU-27">
          <mxGeometry relative="1" as="geometry" />
        </mxCell>
        <mxCell id="YKBG0jgpZs3wiLhJpTWU-23" value="逾期繳費" style="rhombus;whiteSpace=wrap;html=1;" vertex="1" parent="DVyqi5FKeD5EoQhoKruz-3">
          <mxGeometry x="451" y="174" width="80" height="50" as="geometry" />
        </mxCell>
        <mxCell id="YKBG0jgpZs3wiLhJpTWU-25" value="持續逾期繳費" style="rhombus;whiteSpace=wrap;html=1;" vertex="1" parent="DVyqi5FKeD5EoQhoKruz-3">
          <mxGeometry x="652" y="174" width="105" height="50" as="geometry" />
        </mxCell>
        <mxCell id="YKBG0jgpZs3wiLhJpTWU-32" value="" style="edgeStyle=orthogonalEdgeStyle;rounded=0;orthogonalLoop=1;jettySize=auto;html=1;" edge="1" parent="DVyqi5FKeD5EoQhoKruz-3" source="YKBG0jgpZs3wiLhJpTWU-27" target="YKBG0jgpZs3wiLhJpTWU-25">
          <mxGeometry relative="1" as="geometry" />
        </mxCell>
        <mxCell id="YKBG0jgpZs3wiLhJpTWU-27" value="47 催告中" style="rounded=0;whiteSpace=wrap;html=1;" vertex="1" parent="DVyqi5FKeD5EoQhoKruz-3">
          <mxGeometry x="552" y="179" width="80" height="40" as="geometry" />
        </mxCell>
        <mxCell id="YKBG0jgpZs3wiLhJpTWU-31" value="PTD+24&amp;nbsp; &amp;nbsp;" style="text;html=1;strokeColor=none;fillColor=none;align=left;verticalAlign=middle;whiteSpace=wrap;rounded=0;" vertex="1" parent="DVyqi5FKeD5EoQhoKruz-3">
          <mxGeometry x="551" y="224" width="55" height="21" as="geometry" />
        </mxCell>
        <mxCell id="YKBG0jgpZs3wiLhJpTWU-33" value="Y" style="text;html=1;strokeColor=none;fillColor=none;align=center;verticalAlign=middle;whiteSpace=wrap;rounded=0;" vertex="1" parent="DVyqi5FKeD5EoQhoKruz-3">
          <mxGeometry x="522" y="175" width="30" height="30" as="geometry" />
        </mxCell>
        <mxCell id="YKBG0jgpZs3wiLhJpTWU-34" value="42 繳費中" style="rounded=0;whiteSpace=wrap;html=1;" vertex="1" parent="DVyqi5FKeD5EoQhoKruz-3">
          <mxGeometry x="740" y="270" width="80" height="40" as="geometry" />
        </mxCell>
        <mxCell id="YKBG0jgpZs3wiLhJpTWU-38" style="edgeStyle=orthogonalEdgeStyle;rounded=0;orthogonalLoop=1;jettySize=auto;html=1;" edge="1" parent="DVyqi5FKeD5EoQhoKruz-3" source="YKBG0jgpZs3wiLhJpTWU-25" target="YKBG0jgpZs3wiLhJpTWU-2">
          <mxGeometry relative="1" as="geometry">
            <mxPoint x="380" y="224" as="targetPoint" />
            <Array as="points">
              <mxPoint x="705" y="244" />
              <mxPoint x="380" y="244" />
            </Array>
          </mxGeometry>
        </mxCell>
        <mxCell id="YKBG0jgpZs3wiLhJpTWU-39" value="N" style="text;html=1;strokeColor=none;fillColor=none;align=center;verticalAlign=middle;whiteSpace=wrap;rounded=0;" vertex="1" parent="DVyqi5FKeD5EoQhoKruz-3">
          <mxGeometry x="460" y="156" width="30" height="30" as="geometry" />
        </mxCell>
        <mxCell id="YKBG0jgpZs3wiLhJpTWU-41" value="N" style="text;html=1;strokeColor=none;fillColor=none;align=center;verticalAlign=middle;whiteSpace=wrap;rounded=0;" vertex="1" parent="DVyqi5FKeD5EoQhoKruz-3">
          <mxGeometry x="680" y="215" width="30" height="30" as="geometry" />
        </mxCell>
        <mxCell id="DVyqi5FKeD5EoQhoKruz-15" style="edgeStyle=orthogonalEdgeStyle;rounded=0;orthogonalLoop=1;jettySize=auto;html=1;" parent="1" source="DVyqi5FKeD5EoQhoKruz-14" edge="1">
          <mxGeometry relative="1" as="geometry">
            <mxPoint x="160" y="281" as="targetPoint" />
            <Array as="points">
              <mxPoint x="100" y="371" />
              <mxPoint x="160" y="371" />
              <mxPoint x="160" y="281" />
            </Array>
          </mxGeometry>
        </mxCell>
        <mxCell id="YKBG0jgpZs3wiLhJpTWU-35" style="edgeStyle=orthogonalEdgeStyle;rounded=0;orthogonalLoop=1;jettySize=auto;html=1;exitX=0.5;exitY=0;exitDx=0;exitDy=0;" edge="1" parent="1" source="YKBG0jgpZs3wiLhJpTWU-23">
          <mxGeometry relative="1" as="geometry">
            <mxPoint x="1080" y="331" as="targetPoint" />
          </mxGeometry>
        </mxCell>
        <mxCell id="YKBG0jgpZs3wiLhJpTWU-43" value="縮寫說明" style="swimlane;horizontal=0;whiteSpace=wrap;html=1;" vertex="1" parent="1">
          <mxGeometry x="30" y="20" width="1270" height="124" as="geometry" />
        </mxCell>
        <mxCell id="YKBG0jgpZs3wiLhJpTWU-44" value="PTD" style="swimlane;whiteSpace=wrap;html=1;" vertex="1" parent="YKBG0jgpZs3wiLhJpTWU-43">
          <mxGeometry x="30" y="5" width="160" height="115" as="geometry" />
        </mxCell>
        <mxCell id="YKBG0jgpZs3wiLhJpTWU-45" value="Paid-to Date 付至日期?" style="text;html=1;strokeColor=none;fillColor=none;align=center;verticalAlign=middle;whiteSpace=wrap;rounded=0;" vertex="1" parent="YKBG0jgpZs3wiLhJpTWU-44">
          <mxGeometry y="23" width="158" height="30" as="geometry" />
        </mxCell>
        <mxCell id="YKBG0jgpZs3wiLhJpTWU-46" value="APL" style="swimlane;whiteSpace=wrap;html=1;" vertex="1" parent="YKBG0jgpZs3wiLhJpTWU-43">
          <mxGeometry x="201" y="5" width="160" height="115" as="geometry" />
        </mxCell>
        <mxCell id="YKBG0jgpZs3wiLhJpTWU-47" value="Automatic Premium Loan&lt;br&gt;自動保費貸款&lt;br&gt;&lt;div style=&quot;text-align: left;&quot;&gt;&lt;span style=&quot;background-color: initial;&quot;&gt;以保單現值抵押、約定利息完成借款繳費&lt;/span&gt;&lt;/div&gt;" style="text;html=1;strokeColor=none;fillColor=none;align=center;verticalAlign=middle;whiteSpace=wrap;rounded=0;" vertex="1" parent="YKBG0jgpZs3wiLhJpTWU-46">
          <mxGeometry x="1" y="23" width="158" height="87" as="geometry" />
        </mxCell>
      </root>
    </mxGraphModel>
  </diagram>
</mxfile>
